<svg xmlns="http://www.w3.org/2000/svg" viewBox="0 0 318 265" width="318" height="265">
	<style>
		tspan { white-space:pre }
		.shp0 { fill: #3d69bc } 
		.shp1 { fill: #201e37 } 
	</style>
	<g id="layer1">
		<g id="g13553">
			<g id="g1965">
				<path id="path1967" class="shp0" d="M164.13 221.02L164.13 50.14C164.13 50.14 250.44 47.49 250.44 136.45C250.44 225.41 164.13 221.02 164.13 221.02Z" />
			</g>
			<g id="g2695">
				<path id="path2697" class="shp1" d="M160.48 161.81L159.7 161.45L113.52 140.43L113.52 159.74C113.52 168.31 134.54 181.03 160.48 181.03C186.41 181.03 207.44 168.3 207.44 159.74L207.44 140.43L160.48 161.81Z" />
			</g>
			<g id="g2699">
				<path id="path2701" class="shp1" d="M160.48 71.78L68.41 113.69L160.48 155.6L252.53 113.69L160.48 71.78Z" />
			</g>
			<g id="g2703">
				<path id="path2705" class="shp1" d="M250.87 147.49L250.87 147.03C252.81 145.8 254.3 143.41 254.3 140.93C254.3 137.45 252.03 134.42 248.59 133.88L248.59 113.69L246.76 113.69L246.76 133.99C243.54 134.77 240.87 137.46 240.87 140.7C240.87 143.18 241.81 145.35 243.76 146.58L243.56 147.48L236.75 175.81L247.13 175.81L257.51 175.81L250.87 147.49Z" />
			</g>
			<path id="ESTC " fill="#17005d" d="M45.07 182.01L45.07 181.48L75.15 181.48L75.15 189.53L74.62 189.53Q74.13 182.01 67.9 182.01L57.96 182.01L57.96 197.05L62.75 197.05Q66.5 197.05 66.5 192.76L67.04 192.76L67.04 201.89L66.5 201.89Q66.5 197.59 62.75 197.59L57.96 197.59L57.96 217.46L68.44 217.46Q74.67 217.46 75.15 209.94L75.69 209.94L75.69 218L45.07 218L45.07 217.46Q49.21 217.46 49.37 214.19L49.37 185.77Q49.37 182.01 45.07 182.01ZM90.92 181.21Q93.49 181.21 95.35 181.91Q97.07 182.58 98.57 182.58Q100.1 182.58 100.1 181.48L100.64 181.48L101.12 189.75L100.58 189.75Q100.58 188.89 100.18 187.71Q99.78 186.53 98.84 185.1Q97.9 183.68 95.86 182.71Q93.82 181.75 91.02 181.75Q85.55 181.75 85.55 185.53Q85.55 189.05 88.74 191.74L99 200.38Q103.62 204.28 103.62 209.25Q103.62 213.52 99.05 216.07Q95.19 218.27 89.22 218.27Q85.2 218.27 82.3 216.33Q81.49 215.8 80.79 215.8Q79.64 215.8 79.07 217.09Q78.91 217.46 78.91 218L78.38 218L78.54 209.62L79.07 209.62Q79.07 210.27 79.34 211.15Q80.01 213.38 82.19 215.4Q83.26 216.39 85.12 217.06Q86.97 217.73 89.22 217.73Q92.18 217.73 93.98 216.25Q95.83 214.72 95.83 212.52Q95.83 209 93.58 207.1L83.32 198.45Q78.56 194.45 78.56 189.53Q78.56 185.72 82.46 183.33Q85.89 181.21 90.92 181.21ZM115.17 182.01L111.68 182.01Q105.45 182.01 104.96 189.53L104.42 189.53L104.42 181.48L134.5 181.48L134.5 189.53L133.97 189.53Q133.48 182.01 127.28 182.01L123.76 182.01L123.76 213.7Q123.76 217.46 128.06 217.46L128.06 218L110.87 218L110.87 217.46Q115.17 217.46 115.17 213.7L115.17 182.01ZM152.33 181.75Q147.77 181.75 145.89 187.38Q144.71 190.96 144.71 199.74Q144.71 207.37 145.84 211.98Q147.23 217.73 152.17 217.73Q157.44 217.73 161.9 213.92L161.9 214.62Q157.44 218.27 152.17 218.27Q145.03 218.27 140.57 212.9Q136.11 207.53 136.11 199.74Q136.11 192.06 140.63 186.63Q145.14 181.21 152.28 181.21Q154.81 181.21 156.66 181.91Q158.38 182.58 159.88 182.58Q161.41 182.58 161.41 181.48L161.95 181.48L162.43 189.75L161.9 189.75Q161.9 188.89 161.49 187.71Q160.28 184.19 157.17 182.71Q155.13 181.75 152.33 181.75Z" />
		</g>
	</g>
</svg>